0
SECTION
2
HEADER
0
ENDSEC
0
SECTION
2
TABLES
0
TABLE
2
LTYPE
0
LTYPE
2
DotLine
70
0
3
Dot (.5x) ........................................
72
65
73
2
40
3.17
49
0.00
49
-3.17
0
LTYPE
2
Solidline
70
0
3
Solidline
72
65
73
0
40
0.00
0
LTYPE
2
DASHDOT2
70
0
3
Dash dot (.5x) _._._._._._._._._._._._._._._.
72
65
73
4
40
0.50
49
0.25
49
-0.13
49
0.00
49
-0.13
0
ENDTAB
0
TABLE
2
LAYER
0
LAYER
2
边线
70
0
62
251
6
DotLine
0
LAYER
2
平面标注
70
0
62
7
6
Solidline
0
LAYER
2
支座参照线
70
0
62
251
6
DASHDOT2
0
LAYER
2
箍筋加密参照线
70
0
62
-3
6
DASHDOT2
0
LAYER
2
四分之一跨长参照线
70
0
62
-3
6
DASHDOT2
0
LAYER
2
三分之一跨长参照线
70
0
62
3
6
DASHDOT2
0
LAYER
2
跨长中心线
70
0
62
-3
6
DASHDOT2
0
LAYER
2
第一排梁上部通长筋
70
0
62
7
6
Solidline
0
LAYER
2
第一排梁下部通长筋
70
0
62
7
6
Solidline
0
LAYER
2
钢筋
70
0
62
2
6
Solidline
0
LAYER
2
搭接名称
70
0
62
-3
6
Solidline
0
LAYER
2
绑扎搭接长度
70
0
62
-3
6
Solidline
0
LAYER
2
纵筋伸入支座长度
70
0
62
-3
6
Solidline
0
LAYER
2
箍筋信息
70
0
62
7
6
Solidline
0
ENDTAB
0
TABLE
2
STYLE
0
STYLE
2
Style1
3
TIMES.TTF
70
0
71
0
40
0.00
41
1.00
42
0.20
50
0.00
0
ENDTAB
0
ENDSEC
0
SECTION
2
ENTITIES
0
LINE
8
边线
62
3
10
-200.00
20
700.00
11
-200.00
21
1440.00
0
LINE
8
边线
62
3
10
0.00
20
700.00
11
0.00
21
1440.00
0
LINE
8
边线
62
3
10
-440.00
20
1200.00
11
-200.00
21
1200.00
0
LINE
8
边线
62
3
10
0.00
20
1200.00
11
240.00
21
1200.00
0
LINE
8
边线
62
3
10
-200.00
20
1200.00
11
0.00
21
1200.00
0
ARC
8
边线
62
3
10
-200.00
20
1200.00
40
20.00
50
0.00
51
180.00
0
ARC
8
边线
62
3
10
-200.00
20
1200.00
40
20.00
50
180.00
51
0.00
0
ARC
8
边线
62
3
10
0.00
20
1200.00
40
20.00
50
0.00
51
180.00
0
ARC
8
边线
62
3
10
0.00
20
1200.00
40
20.00
50
180.00
51
0.00
0
LINE
8
边线
62
3
10
0.00
20
700.00
11
0.00
21
1440.00
0
LINE
8
边线
62
3
10
200.00
20
700.00
11
200.00
21
1440.00
0
LINE
8
边线
62
3
10
-240.00
20
1200.00
11
0.00
21
1200.00
0
LINE
8
边线
62
3
10
200.00
20
1200.00
11
440.00
21
1200.00
0
LINE
8
边线
62
3
10
0.00
20
1200.00
11
200.00
21
1200.00
0
ARC
8
边线
62
3
10
0.00
20
1200.00
40
20.00
50
0.00
51
180.00
0
ARC
8
边线
62
3
10
0.00
20
1200.00
40
20.00
50
180.00
51
0.00
0
ARC
8
边线
62
3
10
200.00
20
1200.00
40
20.00
50
0.00
51
180.00
0
ARC
8
边线
62
3
10
200.00
20
1200.00
40
20.00
50
180.00
51
0.00
0
LINE
8
边线
62
3
10
0.00
20
-100.00
11
0.00
21
2500.00
0
LINE
8
边线
62
3
10
0.00
20
0.00
11
-1000.00
21
0.00
0
LINE
8
边线
62
3
10
11800.00
20
700.00
11
11800.00
21
1440.00
0
LINE
8
边线
62
3
10
12000.00
20
700.00
11
12000.00
21
1440.00
0
LINE
8
边线
62
3
10
11560.00
20
1200.00
11
11800.00
21
1200.00
0
LINE
8
边线
62
3
10
12000.00
20
1200.00
11
12240.00
21
1200.00
0
LINE
8
边线
62
3
10
11800.00
20
1200.00
11
12000.00
21
1200.00
0
ARC
8
边线
62
3
10
11800.00
20
1200.00
40
20.00
50
0.00
51
180.00
0
ARC
8
边线
62
3
10
11800.00
20
1200.00
40
20.00
50
180.00
51
0.00
0
ARC
8
边线
62
3
10
12000.00
20
1200.00
40
20.00
50
0.00
51
180.00
0
ARC
8
边线
62
3
10
12000.00
20
1200.00
40
20.00
50
180.00
51
0.00
0
LINE
8
边线
62
3
10
12000.00
20
700.00
11
12000.00
21
1440.00
0
LINE
8
边线
62
3
10
12200.00
20
700.00
11
12200.00
21
1440.00
0
LINE
8
边线
62
3
10
11760.00
20
1200.00
11
12000.00
21
1200.00
0
LINE
8
边线
62
3
10
12200.00
20
1200.00
11
12440.00
21
1200.00
0
LINE
8
边线
62
3
10
12000.00
20
1200.00
11
12200.00
21
1200.00
0
ARC
8
边线
62
3
10
12000.00
20
1200.00
40
20.00
50
0.00
51
180.00
0
ARC
8
边线
62
3
10
12000.00
20
1200.00
40
20.00
50
180.00
51
0.00
0
ARC
8
边线
62
3
10
12200.00
20
1200.00
40
20.00
50
0.00
51
180.00
0
ARC
8
边线
62
3
10
12200.00
20
1200.00
40
20.00
50
180.00
51
0.00
0
LINE
8
边线
62
3
10
12000.00
20
-100.00
11
12000.00
21
2500.00
0
LINE
8
边线
62
3
10
17800.00
20
700.00
11
17800.00
21
1440.00
0
LINE
8
边线
62
3
10
18000.00
20
700.00
11
18000.00
21
1440.00
0
LINE
8
边线
62
3
10
17560.00
20
1200.00
11
17800.00
21
1200.00
0
LINE
8
边线
62
3
10
18000.00
20
1200.00
11
18240.00
21
1200.00
0
LINE
8
边线
62
3
10
17800.00
20
1200.00
11
18000.00
21
1200.00
0
ARC
8
边线
62
3
10
17800.00
20
1200.00
40
20.00
50
0.00
51
180.00
0
ARC
8
边线
62
3
10
17800.00
20
1200.00
40
20.00
50
180.00
51
0.00
0
ARC
8
边线
62
3
10
18000.00
20
1200.00
40
20.00
50
0.00
51
180.00
0
ARC
8
边线
62
3
10
18000.00
20
1200.00
40
20.00
50
180.00
51
0.00
0
LINE
8
边线
62
3
10
18000.00
20
700.00
11
18000.00
21
1440.00
0
LINE
8
边线
62
3
10
18200.00
20
700.00
11
18200.00
21
1440.00
0
LINE
8
边线
62
3
10
17760.00
20
1200.00
11
18000.00
21
1200.00
0
LINE
8
边线
62
3
10
18200.00
20
1200.00
11
18440.00
21
1200.00
0
LINE
8
边线
62
3
10
18000.00
20
1200.00
11
18200.00
21
1200.00
0
ARC
8
边线
62
3
10
18000.00
20
1200.00
40
20.00
50
0.00
51
180.00
0
ARC
8
边线
62
3
10
18000.00
20
1200.00
40
20.00
50
180.00
51
0.00
0
ARC
8
边线
62
3
10
18200.00
20
1200.00
40
20.00
50
0.00
51
180.00
0
ARC
8
边线
62
3
10
18200.00
20
1200.00
40
20.00
50
180.00
51
0.00
0
LINE
8
边线
62
3
10
18000.00
20
-100.00
11
18000.00
21
2500.00
0
LINE
8
边线
62
3
10
18000.00
20
0.00
11
19000.00
21
0.00
0
LINE
8
边线
62
3
10
0.00
20
700.00
11
0.00
21
1840.00
0
LINE
8
边线
62
3
10
12000.00
20
700.00
11
12000.00
21
1840.00
0
LINE
8
边线
62
3
10
-240.00
20
1600.00
11
0.00
21
1600.00
0
LINE
8
边线
62
3
10
12000.00
20
1600.00
11
12240.00
21
1600.00
0
LINE
8
边线
62
3
10
0.00
20
1600.00
11
12000.00
21
1600.00
0
ARC
8
边线
62
3
10
0.00
20
1600.00
40
20.00
50
0.00
51
180.00
0
ARC
8
边线
62
3
10
0.00
20
1600.00
40
20.00
50
180.00
51
0.00
0
ARC
8
边线
62
3
10
12000.00
20
1600.00
40
20.00
50
0.00
51
180.00
0
ARC
8
边线
62
3
10
12000.00
20
1600.00
40
20.00
50
180.00
51
0.00
0
LINE
8
边线
62
3
10
12000.00
20
700.00
11
12000.00
21
1840.00
0
LINE
8
边线
62
3
10
18000.00
20
700.00
11
18000.00
21
1840.00
0
LINE
8
边线
62
3
10
11760.00
20
1600.00
11
12000.00
21
1600.00
0
LINE
8
边线
62
3
10
18000.00
20
1600.00
11
18240.00
21
1600.00
0
LINE
8
边线
62
3
10
12000.00
20
1600.00
11
18000.00
21
1600.00
0
ARC
8
边线
62
3
10
12000.00
20
1600.00
40
20.00
50
0.00
51
180.00
0
ARC
8
边线
62
3
10
12000.00
20
1600.00
40
20.00
50
180.00
51
0.00
0
ARC
8
边线
62
3
10
18000.00
20
1600.00
40
20.00
50
0.00
51
180.00
0
ARC
8
边线
62
3
10
18000.00
20
1600.00
40
20.00
50
180.00
51
0.00
0
LINE
8
边线
62
3
10
0.00
20
1050.00
11
0.00
21
2490.00
0
LINE
8
边线
62
3
10
18000.00
20
1050.00
11
18000.00
21
2490.00
0
LINE
8
边线
62
3
10
-240.00
20
2250.00
11
0.00
21
2250.00
0
LINE
8
边线
62
3
10
18000.00
20
2250.00
11
18240.00
21
2250.00
0
LINE
8
边线
62
3
10
0.00
20
2250.00
11
18000.00
21
2250.00
0
ARC
8
边线
62
3
10
0.00
20
2250.00
40
20.00
50
0.00
51
180.00
0
ARC
8
边线
62
3
10
0.00
20
2250.00
40
20.00
50
180.00
51
0.00
0
ARC
8
边线
62
3
10
18000.00
20
2250.00
40
20.00
50
0.00
51
180.00
0
ARC
8
边线
62
3
10
18000.00
20
2250.00
40
20.00
50
180.00
51
0.00
0
LINE
8
边线
62
251
10
0.00
20
-175.00
11
18000.00
21
-175.00
0
LINE
8
边线
62
251
10
18000.00
20
-175.00
11
18000.00
21
175.00
0
LINE
8
边线
62
251
10
18000.00
20
175.00
11
0.00
21
175.00
0
LINE
8
边线
62
251
10
0.00
20
175.00
11
0.00
21
-175.00
0
LINE
8
边线
62
2
10
-200.00
20
-262.50
11
200.00
21
-262.50
0
LINE
8
边线
62
2
10
200.00
20
-262.50
11
200.00
21
262.50
0
LINE
8
边线
62
2
10
200.00
20
262.50
11
-200.00
21
262.50
0
LINE
8
边线
62
2
10
-200.00
20
262.50
11
-200.00
21
-262.50
0
ARC
8
边线
62
3
10
0.00
20
2740.00
40
240.00
50
180.00
51
0.00
0
ARC
8
边线
62
3
10
0.00
20
2740.00
40
240.00
50
0.00
51
180.00
0
ARC
8
边线
62
3
10
-1240.00
20
0.00
40
240.00
50
180.00
51
0.00
0
ARC
8
边线
62
3
10
-1240.00
20
0.00
40
240.00
50
0.00
51
180.00
0
LINE
8
边线
62
2
10
11800.00
20
-262.50
11
12200.00
21
-262.50
0
LINE
8
边线
62
2
10
12200.00
20
-262.50
11
12200.00
21
262.50
0
LINE
8
边线
62
2
10
12200.00
20
262.50
11
11800.00
21
262.50
0
LINE
8
边线
62
2
10
11800.00
20
262.50
11
11800.00
21
-262.50
0
ARC
8
边线
62
3
10
12000.00
20
2740.00
40
240.00
50
180.00
51
0.00
0
ARC
8
边线
62
3
10
12000.00
20
2740.00
40
240.00
50
0.00
51
180.00
0
LINE
8
边线
62
2
10
17800.00
20
-262.50
11
18200.00
21
-262.50
0
LINE
8
边线
62
2
10
18200.00
20
-262.50
11
18200.00
21
262.50
0
LINE
8
边线
62
2
10
18200.00
20
262.50
11
17800.00
21
262.50
0
LINE
8
边线
62
2
10
17800.00
20
262.50
11
17800.00
21
-262.50
0
ARC
8
边线
62
3
10
18000.00
20
2740.00
40
240.00
50
180.00
51
0.00
0
ARC
8
边线
62
3
10
18000.00
20
2740.00
40
240.00
50
0.00
51
180.00
0
ARC
8
边线
62
3
10
19240.00
20
0.00
40
240.00
50
180.00
51
0.00
0
ARC
8
边线
62
3
10
19240.00
20
0.00
40
240.00
50
0.00
51
180.00
0
TEXT
8
边线
7
Style1
10
-170.00
20
1400.00
30
0
11
-160.00
21
1400.00
31
0
50
0.00
72
1
73
2
40
153.85
62
7
1
200
0
TEXT
8
边线
7
Style1
10
150.00
20
1400.00
30
0
11
160.00
21
1400.00
31
0
50
0.00
72
1
73
2
40
153.85
62
7
1
200
0
TEXT
8
边线
7
Style1
10
11830.00
20
1400.00
30
0
11
11840.00
21
1400.00
31
0
50
0.00
72
1
73
2
40
153.85
62
7
1
200
0
TEXT
8
边线
7
Style1
10
12150.00
20
1400.00
30
0
11
12160.00
21
1400.00
31
0
50
0.00
72
1
73
2
40
153.85
62
7
1
200
0
TEXT
8
边线
7
Style1
10
17830.00
20
1400.00
30
0
11
17840.00
21
1400.00
31
0
50
0.00
72
1
73
2
40
153.85
62
7
1
200
0
TEXT
8
边线
7
Style1
10
18150.00
20
1400.00
30
0
11
18160.00
21
1400.00
31
0
50
0.00
72
1
73
2
40
153.85
62
7
1
200
0
TEXT
8
边线
7
Style1
10
5990.00
20
1800.00
30
0
11
6000.00
21
1800.00
31
0
50
0.00
72
1
73
2
40
153.85
62
7
1
12000
0
TEXT
8
边线
7
Style1
10
14990.00
20
1800.00
30
0
11
15000.00
21
1800.00
31
0
50
0.00
72
1
73
2
40
153.85
62
7
1
6000
0
TEXT
8
边线
7
Style1
10
8990.00
20
2450.00
30
0
11
9000.00
21
2450.00
31
0
50
0.00
72
1
73
2
40
153.85
62
7
1
18000
0
LINE
8
平面标注
62
7
10
2900.00
20
0.00
11
2900.00
21
1375.00
0
TEXT
8
平面标注
7
Style1
10
-10.00
20
2740.00
30
0
11
0.00
21
2740.00
31
0
50
0.00
72
1
73
2
40
153.85
62
7
1
2
0
TEXT
8
平面标注
7
Style1
10
-1250.00
20
0.00
30
0
11
-1240.00
21
0.00
31
0
50
0.00
72
1
73
2
40
153.85
62
7
1
G
0
TEXT
8
平面标注
7
Style1
10
11990.00
20
2740.00
30
0
11
12000.00
21
2740.00
31
0
50
0.00
72
1
73
2
40
153.85
62
7
1
6
0
TEXT
8
平面标注
7
Style1
10
17990.00
20
2740.00
30
0
11
18000.00
21
2740.00
31
0
50
0.00
72
1
73
2
40
153.85
62
7
1
8
0
TEXT
8
平面标注
7
Style1
10
19230.00
20
0.00
30
0
11
19240.00
21
0.00
31
0
50
0.00
72
1
73
2
40
153.85
62
7
1
G
0
TEXT
8
平面标注
7
Style1
10
5990.00
20
0.00
30
0
11
6000.00
21
0.00
31
0
50
0.00
72
1
73
2
40
153.85
62
7
1
第1跨
0
TEXT
8
平面标注
7
Style1
10
14990.00
20
0.00
30
0
11
15000.00
21
0.00
31
0
50
0.00
72
1
73
2
40
153.85
62
7
1
第2跨
0
TEXT
8
平面标注
7
Style1
10
2890.00
20
1375.00
30
0
11
2900.00
21
1375.00
31
0
50
0.00
73
2
40
184.62
62
7
1
KL-1 350*550
0
TEXT
8
平面标注
7
Style1
10
2890.00
20
1135.00
30
0
11
2900.00
21
1135.00
31
0
50
0.00
73
2
40
184.62
62
7
1
2C25;4C25
0
LINE
8
支座参照线
62
251
10
-200.00
20
-475.00
11
-200.00
21
-20475.00
0
LINE
8
支座参照线
62
251
10
0.00
20
-475.00
11
0.00
21
-20475.00
0
LINE
8
支座参照线
62
251
10
200.00
20
-475.00
11
200.00
21
-20475.00
0
LINE
8
支座参照线
62
251
10
11800.00
20
-475.00
11
11800.00
21
-20475.00
0
LINE
8
支座参照线
62
251
10
12000.00
20
-475.00
11
12000.00
21
-20475.00
0
LINE
8
支座参照线
62
251
10
12200.00
20
-475.00
11
12200.00
21
-20475.00
0
LINE
8
支座参照线
62
251
10
17800.00
20
-475.00
11
17800.00
21
-20475.00
0
LINE
8
支座参照线
62
251
10
18000.00
20
-475.00
11
18000.00
21
-20475.00
0
LINE
8
支座参照线
62
251
10
18200.00
20
-475.00
11
18200.00
21
-20475.00
0
LINE
8
箍筋加密参照线
62
3
10
1300.00
20
-475.00
11
1300.00
21
-20475.00
0
LINE
8
箍筋加密参照线
62
3
10
10700.00
20
-475.00
11
10700.00
21
-20475.00
0
LINE
8
箍筋加密参照线
62
3
10
13300.00
20
-475.00
11
13300.00
21
-20475.00
0
LINE
8
箍筋加密参照线
62
3
10
16700.00
20
-475.00
11
16700.00
21
-20475.00
0
LINE
8
四分之一跨长参照线
62
3
10
3100.00
20
-475.00
11
3100.00
21
-20475.00
0
LINE
8
四分之一跨长参照线
62
3
10
8900.00
20
-475.00
11
8900.00
21
-20475.00
0
LINE
8
四分之一跨长参照线
62
3
10
13600.00
20
-475.00
11
13600.00
21
-20475.00
0
LINE
8
四分之一跨长参照线
62
3
10
16400.00
20
-475.00
11
16400.00
21
-20475.00
0
LINE
8
三分之一跨长参照线
62
3
10
4066.67
20
-475.00
11
4066.67
21
-20475.00
0
LINE
8
三分之一跨长参照线
62
3
10
7933.33
20
-475.00
11
7933.33
21
-20475.00
0
LINE
8
三分之一跨长参照线
62
3
10
14066.67
20
-475.00
11
14066.67
21
-20475.00
0
LINE
8
三分之一跨长参照线
62
3
10
15933.33
20
-475.00
11
15933.33
21
-20475.00
0
LINE
8
跨长中心线
62
3
10
6000.00
20
-475.00
11
6000.00
21
-20475.00
0
LINE
8
跨长中心线
62
3
10
15000.00
20
-475.00
11
15000.00
21
-20475.00
0
TEXT
8
第一排梁上部通长筋
7
Style1
10
-520.00
20
-1080.00
30
0
11
-510.00
21
-1080.00
31
0
50
0.00
72
2
73
2
40
184.62
62
7
1
第一排梁上部通长筋
0
TEXT
8
第一排梁下部通长筋
7
Style1
10
-520.00
20
-2880.00
30
0
11
-510.00
21
-2880.00
31
0
50
0.00
72
2
73
2
40
184.62
62
7
1
第一排梁下部通长筋
0
LINE
8
钢筋
62
2
10
-130.00
20
-1080.00
11
3990.00
21
-1080.00
0
LINE
8
钢筋
62
1
10
3990.00
20
-1080.00
11
15490.00
21
-1080.00
0
LINE
8
钢筋
62
2
10
15490.00
20
-1080.00
11
18130.00
21
-1080.00
0
LINE
8
钢筋
62
2
10
-130.00
20
-1080.00
11
-130.00
21
-1460.00
0
LINE
8
钢筋
62
2
10
18130.00
20
-1080.00
11
18130.00
21
-1460.00
0
LINE
8
钢筋
62
2
10
-130.00
20
-1980.00
11
5010.00
21
-1980.00
0
LINE
8
钢筋
62
2
10
5010.00
20
-1980.00
11
14010.00
21
-1980.00
0
LINE
8
钢筋
62
2
10
14010.00
20
-1980.00
11
18130.00
21
-1980.00
0
LINE
8
钢筋
62
2
10
-130.00
20
-1980.00
11
-130.00
21
-2360.00
0
LINE
8
钢筋
62
2
10
18130.00
20
-1980.00
11
18130.00
21
-2360.00
0
LINE
8
钢筋
62
2
10
-130.00
20
-2880.00
11
8490.00
21
-2880.00
0
LINE
8
钢筋
62
2
10
8490.00
20
-2880.00
11
17490.00
21
-2880.00
0
LINE
8
钢筋
62
2
10
17490.00
20
-2880.00
11
18130.00
21
-2880.00
0
LINE
8
钢筋
62
2
10
-130.00
20
-2880.00
11
-130.00
21
-2500.00
0
LINE
8
钢筋
62
2
10
18130.00
20
-2880.00
11
18130.00
21
-2500.00
0
LINE
8
钢筋
62
1
10
-130.00
20
-4680.00
11
9510.00
21
-4680.00
0
LINE
8
钢筋
62
2
10
9510.00
20
-4680.00
11
18130.00
21
-4680.00
0
LINE
8
钢筋
62
2
10
-130.00
20
-4680.00
11
-130.00
21
-4300.00
0
LINE
8
钢筋
62
2
10
18130.00
20
-4680.00
11
18130.00
21
-4300.00
0
LINE
8
钢筋
62
1
10
3910.05
20
-1120.00
11
4070.05
21
-1120.00
0
LINE
8
钢筋
62
1
10
4070.05
20
-1120.00
11
4070.05
21
-1040.00
0
LINE
8
钢筋
62
1
10
4070.05
20
-1040.00
11
3910.05
21
-1040.00
0
LINE
8
钢筋
62
1
10
3910.05
20
-1040.00
11
3910.05
21
-1120.00
0
LINE
8
钢筋
62
1
10
15410.05
20
-1120.00
11
15570.05
21
-1120.00
0
LINE
8
钢筋
62
1
10
15570.05
20
-1120.00
11
15570.05
21
-1040.00
0
LINE
8
钢筋
62
1
10
15570.05
20
-1040.00
11
15410.05
21
-1040.00
0
LINE
8
钢筋
62
1
10
15410.05
20
-1040.00
11
15410.05
21
-1120.00
0
LINE
8
钢筋
62
1
10
4930.05
20
-2020.00
11
5090.05
21
-2020.00
0
LINE
8
钢筋
62
1
10
5090.05
20
-2020.00
11
5090.05
21
-1940.00
0
LINE
8
钢筋
62
1
10
5090.05
20
-1940.00
11
4930.05
21
-1940.00
0
LINE
8
钢筋
62
1
10
4930.05
20
-1940.00
11
4930.05
21
-2020.00
0
LINE
8
钢筋
62
1
10
13930.05
20
-2020.00
11
14090.05
21
-2020.00
0
LINE
8
钢筋
62
1
10
14090.05
20
-2020.00
11
14090.05
21
-1940.00
0
LINE
8
钢筋
62
1
10
14090.05
20
-1940.00
11
13930.05
21
-1940.00
0
LINE
8
钢筋
62
1
10
13930.05
20
-1940.00
11
13930.05
21
-2020.00
0
LINE
8
钢筋
62
1
10
8410.05
20
-2920.00
11
8570.05
21
-2920.00
0
LINE
8
钢筋
62
1
10
8570.05
20
-2920.00
11
8570.05
21
-2840.00
0
LINE
8
钢筋
62
1
10
8570.05
20
-2840.00
11
8410.05
21
-2840.00
0
LINE
8
钢筋
62
1
10
8410.05
20
-2840.00
11
8410.05
21
-2920.00
0
LINE
8
钢筋
62
1
10
17410.05
20
-2920.00
11
17570.05
21
-2920.00
0
LINE
8
钢筋
62
1
10
17570.05
20
-2920.00
11
17570.05
21
-2840.00
0
LINE
8
钢筋
62
1
10
17570.05
20
-2840.00
11
17410.05
21
-2840.00
0
LINE
8
钢筋
62
1
10
17410.05
20
-2840.00
11
17410.05
21
-2920.00
0
LINE
8
钢筋
62
1
10
9430.05
20
-4720.00
11
9590.05
21
-4720.00
0
LINE
8
钢筋
62
1
10
9590.05
20
-4720.00
11
9590.05
21
-4640.00
0
LINE
8
钢筋
62
1
10
9590.05
20
-4640.00
11
9430.05
21
-4640.00
0
LINE
8
钢筋
62
1
10
9430.05
20
-4640.00
11
9430.05
21
-4720.00
0
TEXT
8
钢筋
7
Style1
10
2220.00
20
-1057.78
30
0
11
2230.00
21
-1057.78
31
0
50
0.00
73
1
40
153.85
62
3
1
4120
0
TEXT
8
钢筋
7
Style1
10
1620.00
20
-1057.78
30
0
11
1630.00
21
-1057.78
31
0
50
0.00
72
2
73
1
40
153.85
62
7
1
(3)
0
TEXT
8
钢筋
7
Style1
10
1920.00
20
-1057.78
30
0
11
1930.00
21
-1057.78
31
0
50
0.00
72
1
73
1
40
153.85
62
7
1
1C25-
0
TEXT
8
钢筋
7
Style1
10
10030.00
20
-1057.78
30
0
11
10040.00
21
-1057.78
31
0
50
0.00
73
1
40
153.85
62
3
1
11500
0
TEXT
8
钢筋
7
Style1
10
9430.00
20
-1057.78
30
0
11
9440.00
21
-1057.78
31
0
50
0.00
72
2
73
1
40
153.85
62
7
1
(3)
0
TEXT
8
钢筋
7
Style1
10
9730.00
20
-1057.78
30
0
11
9740.00
21
-1057.78
31
0
50
0.00
72
1
73
1
40
153.85
62
7
1
1C25-
0
TEXT
8
钢筋
7
Style1
10
17100.00
20
-1057.78
30
0
11
17110.00
21
-1057.78
31
0
50
0.00
73
1
40
153.85
62
3
1
2640
0
TEXT
8
钢筋
7
Style1
10
16500.00
20
-1057.78
30
0
11
16510.00
21
-1057.78
31
0
50
0.00
72
2
73
1
40
153.85
62
7
1
(3)
0
TEXT
8
钢筋
7
Style1
10
16800.00
20
-1057.78
30
0
11
16810.00
21
-1057.78
31
0
50
0.00
72
1
73
1
40
153.85
62
7
1
1C25-
0
TEXT
8
钢筋
7
Style1
10
-140.00
20
-1270.00
30
0
11
-130.00
21
-1270.00
31
0
50
0.00
72
2
73
2
40
153.85
62
3
1
380
0
TEXT
8
钢筋
7
Style1
10
18120.00
20
-1270.00
30
0
11
18130.00
21
-1270.00
31
0
50
0.00
73
2
40
153.85
62
3
1
380
0
TEXT
8
钢筋
7
Style1
10
2730.00
20
-1957.78
30
0
11
2740.00
21
-1957.78
31
0
50
0.00
73
1
40
153.85
62
3
1
5140
0
TEXT
8
钢筋
7
Style1
10
2130.00
20
-1957.78
30
0
11
2140.00
21
-1957.78
31
0
50
0.00
72
2
73
1
40
153.85
62
7
1
(4)
0
TEXT
8
钢筋
7
Style1
10
2430.00
20
-1957.78
30
0
11
2440.00
21
-1957.78
31
0
50
0.00
72
1
73
1
40
153.85
62
7
1
1C25-
0
TEXT
8
钢筋
7
Style1
10
9800.00
20
-1957.78
30
0
11
9810.00
21
-1957.78
31
0
50
0.00
73
1
40
153.85
62
3
1
9000
0
TEXT
8
钢筋
7
Style1
10
9200.00
20
-1957.78
30
0
11
9210.00
21
-1957.78
31
0
50
0.00
72
2
73
1
40
153.85
62
7
1
(4)
0
TEXT
8
钢筋
7
Style1
10
9500.00
20
-1957.78
30
0
11
9510.00
21
-1957.78
31
0
50
0.00
72
1
73
1
40
153.85
62
7
1
1C25-
0
TEXT
8
钢筋
7
Style1
10
16360.00
20
-1957.78
30
0
11
16370.00
21
-1957.78
31
0
50
0.00
73
1
40
153.85
62
3
1
4120
0
TEXT
8
钢筋
7
Style1
10
15760.00
20
-1957.78
30
0
11
15770.00
21
-1957.78
31
0
50
0.00
72
2
73
1
40
153.85
62
7
1
(4)
0
TEXT
8
钢筋
7
Style1
10
16060.00
20
-1957.78
30
0
11
16070.00
21
-1957.78
31
0
50
0.00
72
1
73
1
40
153.85
62
7
1
1C25-
0
TEXT
8
钢筋
7
Style1
10
-140.00
20
-2170.00
30
0
11
-130.00
21
-2170.00
31
0
50
0.00
72
2
73
2
40
153.85
62
3
1
380
0
TEXT
8
钢筋
7
Style1
10
18120.00
20
-2170.00
30
0
11
18130.00
21
-2170.00
31
0
50
0.00
73
2
40
153.85
62
3
1
380
0
TEXT
8
钢筋
7
Style1
10
4470.00
20
-2857.78
30
0
11
4480.00
21
-2857.78
31
0
50
0.00
73
1
40
153.85
62
3
1
8620
0
TEXT
8
钢筋
7
Style1
10
3870.00
20
-2857.78
30
0
11
3880.00
21
-2857.78
31
0
50
0.00
72
2
73
1
40
153.85
62
7
1
(1)
0
TEXT
8
钢筋
7
Style1
10
4170.00
20
-2857.78
30
0
11
4180.00
21
-2857.78
31
0
50
0.00
72
1
73
1
40
153.85
62
7
1
2C25-
0
TEXT
8
钢筋
7
Style1
10
13280.00
20
-2857.78
30
0
11
13290.00
21
-2857.78
31
0
50
0.00
73
1
40
153.85
62
3
1
9000
0
TEXT
8
钢筋
7
Style1
10
12680.00
20
-2857.78
30
0
11
12690.00
21
-2857.78
31
0
50
0.00
72
2
73
1
40
153.85
62
7
1
(1)
0
TEXT
8
钢筋
7
Style1
10
12980.00
20
-2857.78
30
0
11
12990.00
21
-2857.78
31
0
50
0.00
72
1
73
1
40
153.85
62
7
1
2C25-
0
TEXT
8
钢筋
7
Style1
10
18100.00
20
-2857.78
30
0
11
18110.00
21
-2857.78
31
0
50
0.00
73
1
40
153.85
62
3
1
640
0
TEXT
8
钢筋
7
Style1
10
17500.00
20
-2857.78
30
0
11
17510.00
21
-2857.78
31
0
50
0.00
72
2
73
1
40
153.85
62
7
1
(1)
0
TEXT
8
钢筋
7
Style1
10
17800.00
20
-2857.78
30
0
11
17810.00
21
-2857.78
31
0
50
0.00
72
1
73
1
40
153.85
62
7
1
2C25-
0
TEXT
8
钢筋
7
Style1
10
-140.00
20
-2690.00
30
0
11
-130.00
21
-2690.00
31
0
50
0.00
72
2
73
2
40
153.85
62
3
1
380
0
TEXT
8
钢筋
7
Style1
10
18120.00
20
-2690.00
30
0
11
18130.00
21
-2690.00
31
0
50
0.00
73
2
40
153.85
62
3
1
380
0
TEXT
8
钢筋
7
Style1
10
4980.00
20
-4657.78
30
0
11
4990.00
21
-4657.78
31
0
50
0.00
73
1
40
153.85
62
3
1
9640
0
TEXT
8
钢筋
7
Style1
10
4380.00
20
-4657.78
30
0
11
4390.00
21
-4657.78
31
0
50
0.00
72
2
73
1
40
153.85
62
7
1
(2)
0
TEXT
8
钢筋
7
Style1
10
4680.00
20
-4657.78
30
0
11
4690.00
21
-4657.78
31
0
50
0.00
72
1
73
1
40
153.85
62
7
1
2C25-
0
TEXT
8
钢筋
7
Style1
10
14110.00
20
-4657.78
30
0
11
14120.00
21
-4657.78
31
0
50
0.00
73
1
40
153.85
62
3
1
8620
0
TEXT
8
钢筋
7
Style1
10
13510.00
20
-4657.78
30
0
11
13520.00
21
-4657.78
31
0
50
0.00
72
2
73
1
40
153.85
62
7
1
(2)
0
TEXT
8
钢筋
7
Style1
10
13810.00
20
-4657.78
30
0
11
13820.00
21
-4657.78
31
0
50
0.00
72
1
73
1
40
153.85
62
7
1
2C25-
0
TEXT
8
钢筋
7
Style1
10
-140.00
20
-4490.00
30
0
11
-130.00
21
-4490.00
31
0
50
0.00
72
2
73
2
40
153.85
62
3
1
380
0
TEXT
8
钢筋
7
Style1
10
18120.00
20
-4490.00
30
0
11
18130.00
21
-4490.00
31
0
50
0.00
73
2
40
153.85
62
3
1
380
0
TEXT
8
搭接名称
7
Style1
10
3980.05
20
-1122.22
30
0
11
3990.05
21
-1122.22
31
0
50
0.00
72
1
73
3
40
153.85
62
3
1
套管挤压
0
TEXT
8
搭接名称
7
Style1
10
15480.05
20
-1122.22
30
0
11
15490.05
21
-1122.22
31
0
50
0.00
72
1
73
3
40
153.85
62
3
1
套管挤压
0
TEXT
8
搭接名称
7
Style1
10
5000.05
20
-2022.22
30
0
11
5010.05
21
-2022.22
31
0
50
0.00
72
1
73
3
40
153.85
62
3
1
套管挤压
0
TEXT
8
搭接名称
7
Style1
10
14000.05
20
-2022.22
30
0
11
14010.05
21
-2022.22
31
0
50
0.00
72
1
73
3
40
153.85
62
3
1
套管挤压
0
TEXT
8
搭接名称
7
Style1
10
8480.05
20
-2922.22
30
0
11
8490.05
21
-2922.22
31
0
50
0.00
72
1
73
3
40
153.85
62
3
1
套管挤压
0
TEXT
8
搭接名称
7
Style1
10
17480.05
20
-2922.22
30
0
11
17490.05
21
-2922.22
31
0
50
0.00
72
1
73
3
40
153.85
62
3
1
套管挤压
0
TEXT
8
搭接名称
7
Style1
10
9500.05
20
-4722.22
30
0
11
9510.05
21
-4722.22
31
0
50
0.00
72
1
73
3
40
153.85
62
3
1
套管挤压
0
TEXT
8
绑扎搭接长度
7
Style1
10
3980.05
20
-1057.78
30
0
11
3990.05
21
-1057.78
31
0
50
0.00
72
1
73
1
40
153.85
62
3
1
0
0
TEXT
8
绑扎搭接长度
7
Style1
10
15480.05
20
-1057.78
30
0
11
15490.05
21
-1057.78
31
0
50
0.00
72
1
73
1
40
153.85
62
3
1
0
0
TEXT
8
绑扎搭接长度
7
Style1
10
5000.05
20
-1957.78
30
0
11
5010.05
21
-1957.78
31
0
50
0.00
72
1
73
1
40
153.85
62
3
1
0
0
TEXT
8
绑扎搭接长度
7
Style1
10
14000.05
20
-1957.78
30
0
11
14010.05
21
-1957.78
31
0
50
0.00
72
1
73
1
40
153.85
62
3
1
0
0
TEXT
8
绑扎搭接长度
7
Style1
10
8480.05
20
-2857.78
30
0
11
8490.05
21
-2857.78
31
0
50
0.00
72
1
73
1
40
153.85
62
3
1
0
0
TEXT
8
绑扎搭接长度
7
Style1
10
17480.05
20
-2857.78
30
0
11
17490.05
21
-2857.78
31
0
50
0.00
72
1
73
1
40
153.85
62
3
1
0
0
TEXT
8
绑扎搭接长度
7
Style1
10
9500.05
20
-4657.78
30
0
11
9510.05
21
-4657.78
31
0
50
0.00
72
1
73
1
40
153.85
62
3
1
0
0
TEXT
8
纵筋伸入支座长度
7
Style1
10
25.00
20
-1280.00
30
0
11
35.00
21
-1280.00
31
0
50
0.00
72
1
73
1
40
153.85
62
3
1
330
0
TEXT
8
纵筋伸入支座长度
7
Style1
10
17955.00
20
-1280.00
30
0
11
17965.00
21
-1280.00
31
0
50
0.00
72
1
73
1
40
153.85
62
3
1
330
0
TEXT
8
纵筋伸入支座长度
7
Style1
10
25.00
20
-2180.00
30
0
11
35.00
21
-2180.00
31
0
50
0.00
72
1
73
1
40
153.85
62
3
1
330
0
TEXT
8
纵筋伸入支座长度
7
Style1
10
17955.00
20
-2180.00
30
0
11
17965.00
21
-2180.00
31
0
50
0.00
72
1
73
1
40
153.85
62
3
1
330
0
TEXT
8
纵筋伸入支座长度
7
Style1
10
25.00
20
-3080.00
30
0
11
35.00
21
-3080.00
31
0
50
0.00
72
1
73
1
40
153.85
62
3
1
330
0
TEXT
8
纵筋伸入支座长度
7
Style1
10
17955.00
20
-3080.00
30
0
11
17965.00
21
-3080.00
31
0
50
0.00
72
1
73
1
40
153.85
62
3
1
330
0
TEXT
8
纵筋伸入支座长度
7
Style1
10
25.00
20
-4880.00
30
0
11
35.00
21
-4880.00
31
0
50
0.00
72
1
73
1
40
153.85
62
3
1
330
0
TEXT
8
纵筋伸入支座长度
7
Style1
10
17955.00
20
-4880.00
30
0
11
17965.00
21
-4880.00
31
0
50
0.00
72
1
73
1
40
153.85
62
3
1
330
0
LINE
8
箍筋信息
62
2
10
632.50
20
-6310.00
11
917.50
21
-6310.00
0
LINE
8
箍筋信息
62
2
10
930.00
20
-6297.50
11
930.00
21
-5812.50
0
LINE
8
箍筋信息
62
2
10
917.50
20
-5800.00
11
632.50
21
-5800.00
0
LINE
8
箍筋信息
62
2
10
620.00
20
-5812.50
11
620.00
21
-6297.50
0
ARC
8
箍筋信息
62
2
10
632.50
20
-5812.50
40
12.50
50
90.00
51
-135.00
0
ARC
8
箍筋信息
62
2
10
632.50
20
-5812.50
40
12.50
50
45.00
51
180.00
0
ARC
8
箍筋信息
62
2
10
917.50
20
-6297.50
40
12.50
50
-90.00
51
0.00
0
ARC
8
箍筋信息
62
2
10
917.50
20
-5812.50
40
12.50
50
0.00
51
90.00
0
ARC
8
箍筋信息
62
2
10
632.50
20
-5812.50
40
12.50
50
90.00
51
180.00
0
ARC
8
箍筋信息
62
2
10
632.50
20
-6297.50
40
12.50
50
180.00
51
-90.00
0
LINE
8
箍筋信息
62
2
10
641.34
20
-5803.66
11
697.91
21
-5860.23
0
LINE
8
箍筋信息
62
2
10
623.66
20
-5821.34
11
680.23
21
-5877.91
0
LINE
8
箍筋信息
62
2
10
722.17
20
-6310.00
11
827.83
21
-6310.00
0
LINE
8
箍筋信息
62
2
10
840.33
20
-6297.50
11
840.33
21
-5812.50
0
LINE
8
箍筋信息
62
2
10
827.83
20
-5800.00
11
722.17
21
-5800.00
0
LINE
8
箍筋信息
62
2
10
709.67
20
-5812.50
11
709.67
21
-6297.50
0
ARC
8
箍筋信息
62
2
10
722.17
20
-5812.50
40
12.50
50
90.00
51
-135.00
0
ARC
8
箍筋信息
62
2
10
722.17
20
-5812.50
40
12.50
50
45.00
51
180.00
0
ARC
8
箍筋信息
62
2
10
827.83
20
-6297.50
40
12.50
50
-90.00
51
0.00
0
ARC
8
箍筋信息
62
2
10
827.83
20
-5812.50
40
12.50
50
0.00
51
90.00
0
ARC
8
箍筋信息
62
2
10
722.17
20
-5812.50
40
12.50
50
90.00
51
180.00
0
ARC
8
箍筋信息
62
2
10
722.17
20
-6297.50
40
12.50
50
180.00
51
-90.00
0
LINE
8
箍筋信息
62
2
10
731.01
20
-5803.66
11
787.57
21
-5860.23
0
LINE
8
箍筋信息
62
2
10
713.33
20
-5821.34
11
769.90
21
-5877.91
0
LINE
8
箍筋信息
10
775.00
20
-6530.00
11
1125.00
21
-6530.00
0
LINE
8
箍筋信息
10
775.00
20
-6530.00
11
930.00
21
-6055.00
0
LINE
8
箍筋信息
10
775.00
20
-6530.00
11
840.33
21
-6055.00
0
LINE
8
箍筋信息
62
3
10
250.00
20
-5780.00
11
250.00
21
-5240.00
0
LINE
8
箍筋信息
62
3
10
1300.00
20
-5780.00
11
1300.00
21
-5240.00
0
LINE
8
箍筋信息
62
3
10
10.00
20
-5480.00
11
250.00
21
-5480.00
0
LINE
8
箍筋信息
62
3
10
1300.00
20
-5480.00
11
1540.00
21
-5480.00
0
LINE
8
箍筋信息
62
3
10
250.00
20
-5480.00
11
1300.00
21
-5480.00
0
ARC
8
箍筋信息
62
3
10
250.00
20
-5480.00
40
20.00
50
0.00
51
180.00
0
ARC
8
箍筋信息
62
3
10
250.00
20
-5480.00
40
20.00
50
180.00
51
0.00
0
ARC
8
箍筋信息
62
3
10
1300.00
20
-5480.00
40
20.00
50
0.00
51
180.00
0
ARC
8
箍筋信息
62
3
10
1300.00
20
-5480.00
40
20.00
50
180.00
51
0.00
0
LINE
8
箍筋信息
62
2
10
11082.50
20
-6310.00
11
11367.50
21
-6310.00
0
LINE
8
箍筋信息
62
2
10
11380.00
20
-6297.50
11
11380.00
21
-5812.50
0
LINE
8
箍筋信息
62
2
10
11367.50
20
-5800.00
11
11082.50
21
-5800.00
0
LINE
8
箍筋信息
62
2
10
11070.00
20
-5812.50
11
11070.00
21
-6297.50
0
ARC
8
箍筋信息
62
2
10
11082.50
20
-5812.50
40
12.50
50
90.00
51
-135.00
0
ARC
8
箍筋信息
62
2
10
11082.50
20
-5812.50
40
12.50
50
45.00
51
180.00
0
ARC
8
箍筋信息
62
2
10
11367.50
20
-6297.50
40
12.50
50
-90.00
51
0.00
0
ARC
8
箍筋信息
62
2
10
11367.50
20
-5812.50
40
12.50
50
0.00
51
90.00
0
ARC
8
箍筋信息
62
2
10
11082.50
20
-5812.50
40
12.50
50
90.00
51
180.00
0
ARC
8
箍筋信息
62
2
10
11082.50
20
-6297.50
40
12.50
50
180.00
51
-90.00
0
LINE
8
箍筋信息
62
2
10
11091.34
20
-5803.66
11
11147.91
21
-5860.23
0
LINE
8
箍筋信息
62
2
10
11073.66
20
-5821.34
11
11130.23
21
-5877.91
0
LINE
8
箍筋信息
62
2
10
11172.17
20
-6310.00
11
11277.83
21
-6310.00
0
LINE
8
箍筋信息
62
2
10
11290.33
20
-6297.50
11
11290.33
21
-5812.50
0
LINE
8
箍筋信息
62
2
10
11277.83
20
-5800.00
11
11172.17
21
-5800.00
0
LINE
8
箍筋信息
62
2
10
11159.67
20
-5812.50
11
11159.67
21
-6297.50
0
ARC
8
箍筋信息
62
2
10
11172.17
20
-5812.50
40
12.50
50
90.00
51
-135.00
0
ARC
8
箍筋信息
62
2
10
11172.17
20
-5812.50
40
12.50
50
45.00
51
180.00
0
ARC
8
箍筋信息
62
2
10
11277.83
20
-6297.50
40
12.50
50
-90.00
51
0.00
0
ARC
8
箍筋信息
62
2
10
11277.83
20
-5812.50
40
12.50
50
0.00
51
90.00
0
ARC
8
箍筋信息
62
2
10
11172.17
20
-5812.50
40
12.50
50
90.00
51
180.00
0
ARC
8
箍筋信息
62
2
10
11172.17
20
-6297.50
40
12.50
50
180.00
51
-90.00
0
LINE
8
箍筋信息
62
2
10
11181.01
20
-5803.66
11
11237.57
21
-5860.23
0
LINE
8
箍筋信息
62
2
10
11163.33
20
-5821.34
11
11219.90
21
-5877.91
0
LINE
8
箍筋信息
10
11225.00
20
-6530.00
11
11575.00
21
-6530.00
0
LINE
8
箍筋信息
10
11225.00
20
-6530.00
11
11380.00
21
-6055.00
0
LINE
8
箍筋信息
10
11225.00
20
-6530.00
11
11290.33
21
-6055.00
0
LINE
8
箍筋信息
62
3
10
10700.00
20
-5780.00
11
10700.00
21
-5240.00
0
LINE
8
箍筋信息
62
3
10
11750.00
20
-5780.00
11
11750.00
21
-5240.00
0
LINE
8
箍筋信息
62
3
10
10460.00
20
-5480.00
11
10700.00
21
-5480.00
0
LINE
8
箍筋信息
62
3
10
11750.00
20
-5480.00
11
11990.00
21
-5480.00
0
LINE
8
箍筋信息
62
3
10
10700.00
20
-5480.00
11
11750.00
21
-5480.00
0
ARC
8
箍筋信息
62
3
10
10700.00
20
-5480.00
40
20.00
50
0.00
51
180.00
0
ARC
8
箍筋信息
62
3
10
10700.00
20
-5480.00
40
20.00
50
180.00
51
0.00
0
ARC
8
箍筋信息
62
3
10
11750.00
20
-5480.00
40
20.00
50
0.00
51
180.00
0
ARC
8
箍筋信息
62
3
10
11750.00
20
-5480.00
40
20.00
50
180.00
51
0.00
0
LINE
8
箍筋信息
62
2
10
5857.50
20
-6310.00
11
6142.50
21
-6310.00
0
LINE
8
箍筋信息
62
2
10
6155.00
20
-6297.50
11
6155.00
21
-5812.50
0
LINE
8
箍筋信息
62
2
10
6142.50
20
-5800.00
11
5857.50
21
-5800.00
0
LINE
8
箍筋信息
62
2
10
5845.00
20
-5812.50
11
5845.00
21
-6297.50
0
ARC
8
箍筋信息
62
2
10
5857.50
20
-5812.50
40
12.50
50
90.00
51
-135.00
0
ARC
8
箍筋信息
62
2
10
5857.50
20
-5812.50
40
12.50
50
45.00
51
180.00
0
ARC
8
箍筋信息
62
2
10
6142.50
20
-6297.50
40
12.50
50
-90.00
51
0.00
0
ARC
8
箍筋信息
62
2
10
6142.50
20
-5812.50
40
12.50
50
0.00
51
90.00
0
ARC
8
箍筋信息
62
2
10
5857.50
20
-5812.50
40
12.50
50
90.00
51
180.00
0
ARC
8
箍筋信息
62
2
10
5857.50
20
-6297.50
40
12.50
50
180.00
51
-90.00
0
LINE
8
箍筋信息
62
2
10
5866.34
20
-5803.66
11
5922.91
21
-5860.23
0
LINE
8
箍筋信息
62
2
10
5848.66
20
-5821.34
11
5905.23
21
-5877.91
0
LINE
8
箍筋信息
62
2
10
5947.17
20
-6310.00
11
6052.83
21
-6310.00
0
LINE
8
箍筋信息
62
2
10
6065.33
20
-6297.50
11
6065.33
21
-5812.50
0
LINE
8
箍筋信息
62
2
10
6052.83
20
-5800.00
11
5947.17
21
-5800.00
0
LINE
8
箍筋信息
62
2
10
5934.67
20
-5812.50
11
5934.67
21
-6297.50
0
ARC
8
箍筋信息
62
2
10
5947.17
20
-5812.50
40
12.50
50
90.00
51
-135.00
0
ARC
8
箍筋信息
62
2
10
5947.17
20
-5812.50
40
12.50
50
45.00
51
180.00
0
ARC
8
箍筋信息
62
2
10
6052.83
20
-6297.50
40
12.50
50
-90.00
51
0.00
0
ARC
8
箍筋信息
62
2
10
6052.83
20
-5812.50
40
12.50
50
0.00
51
90.00
0
ARC
8
箍筋信息
62
2
10
5947.17
20
-5812.50
40
12.50
50
90.00
51
180.00
0
ARC
8
箍筋信息
62
2
10
5947.17
20
-6297.50
40
12.50
50
180.00
51
-90.00
0
LINE
8
箍筋信息
62
2
10
5956.01
20
-5803.66
11
6012.57
21
-5860.23
0
LINE
8
箍筋信息
62
2
10
5938.33
20
-5821.34
11
5994.90
21
-5877.91
0
LINE
8
箍筋信息
10
6000.00
20
-6530.00
11
6350.00
21
-6530.00
0
LINE
8
箍筋信息
10
6000.00
20
-6530.00
11
6155.00
21
-6055.00
0
LINE
8
箍筋信息
10
6000.00
20
-6530.00
11
6065.33
21
-6055.00
0
LINE
8
箍筋信息
62
3
10
1300.00
20
-5780.00
11
1300.00
21
-5240.00
0
LINE
8
箍筋信息
62
3
10
10700.00
20
-5780.00
11
10700.00
21
-5240.00
0
LINE
8
箍筋信息
62
3
10
1060.00
20
-5480.00
11
1300.00
21
-5480.00
0
LINE
8
箍筋信息
62
3
10
10700.00
20
-5480.00
11
10940.00
21
-5480.00
0
LINE
8
箍筋信息
62
3
10
1300.00
20
-5480.00
11
10700.00
21
-5480.00
0
ARC
8
箍筋信息
62
3
10
1300.00
20
-5480.00
40
20.00
50
0.00
51
180.00
0
ARC
8
箍筋信息
62
3
10
1300.00
20
-5480.00
40
20.00
50
180.00
51
0.00
0
ARC
8
箍筋信息
62
3
10
10700.00
20
-5480.00
40
20.00
50
0.00
51
180.00
0
ARC
8
箍筋信息
62
3
10
10700.00
20
-5480.00
40
20.00
50
180.00
51
0.00
0
LINE
8
箍筋信息
62
2
10
12632.50
20
-6310.00
11
12917.50
21
-6310.00
0
LINE
8
箍筋信息
62
2
10
12930.00
20
-6297.50
11
12930.00
21
-5812.50
0
LINE
8
箍筋信息
62
2
10
12917.50
20
-5800.00
11
12632.50
21
-5800.00
0
LINE
8
箍筋信息
62
2
10
12620.00
20
-5812.50
11
12620.00
21
-6297.50
0
ARC
8
箍筋信息
62
2
10
12632.50
20
-5812.50
40
12.50
50
90.00
51
-135.00
0
ARC
8
箍筋信息
62
2
10
12632.50
20
-5812.50
40
12.50
50
45.00
51
180.00
0
ARC
8
箍筋信息
62
2
10
12917.50
20
-6297.50
40
12.50
50
-90.00
51
0.00
0
ARC
8
箍筋信息
62
2
10
12917.50
20
-5812.50
40
12.50
50
0.00
51
90.00
0
ARC
8
箍筋信息
62
2
10
12632.50
20
-5812.50
40
12.50
50
90.00
51
180.00
0
ARC
8
箍筋信息
62
2
10
12632.50
20
-6297.50
40
12.50
50
180.00
51
-90.00
0
LINE
8
箍筋信息
62
2
10
12641.34
20
-5803.66
11
12697.91
21
-5860.23
0
LINE
8
箍筋信息
62
2
10
12623.66
20
-5821.34
11
12680.23
21
-5877.91
0
LINE
8
箍筋信息
62
2
10
12722.17
20
-6310.00
11
12827.83
21
-6310.00
0
LINE
8
箍筋信息
62
2
10
12840.33
20
-6297.50
11
12840.33
21
-5812.50
0
LINE
8
箍筋信息
62
2
10
12827.83
20
-5800.00
11
12722.17
21
-5800.00
0
LINE
8
箍筋信息
62
2
10
12709.67
20
-5812.50
11
12709.67
21
-6297.50
0
ARC
8
箍筋信息
62
2
10
12722.17
20
-5812.50
40
12.50
50
90.00
51
-135.00
0
ARC
8
箍筋信息
62
2
10
12722.17
20
-5812.50
40
12.50
50
45.00
51
180.00
0
ARC
8
箍筋信息
62
2
10
12827.83
20
-6297.50
40
12.50
50
-90.00
51
0.00
0
ARC
8
箍筋信息
62
2
10
12827.83
20
-5812.50
40
12.50
50
0.00
51
90.00
0
ARC
8
箍筋信息
62
2
10
12722.17
20
-5812.50
40
12.50
50
90.00
51
180.00
0
ARC
8
箍筋信息
62
2
10
12722.17
20
-6297.50
40
12.50
50
180.00
51
-90.00
0
LINE
8
箍筋信息
62
2
10
12731.01
20
-5803.66
11
12787.57
21
-5860.23
0
LINE
8
箍筋信息
62
2
10
12713.33
20
-5821.34
11
12769.90
21
-5877.91
0
LINE
8
箍筋信息
10
12775.00
20
-6530.00
11
13125.00
21
-6530.00
0
LINE
8
箍筋信息
10
12775.00
20
-6530.00
11
12930.00
21
-6055.00
0
LINE
8
箍筋信息
10
12775.00
20
-6530.00
11
12840.33
21
-6055.00
0
LINE
8
箍筋信息
62
3
10
12250.00
20
-5780.00
11
12250.00
21
-5240.00
0
LINE
8
箍筋信息
62
3
10
13300.00
20
-5780.00
11
13300.00
21
-5240.00
0
LINE
8
箍筋信息
62
3
10
12010.00
20
-5480.00
11
12250.00
21
-5480.00
0
LINE
8
箍筋信息
62
3
10
13300.00
20
-5480.00
11
13540.00
21
-5480.00
0
LINE
8
箍筋信息
62
3
10
12250.00
20
-5480.00
11
13300.00
21
-5480.00
0
ARC
8
箍筋信息
62
3
10
12250.00
20
-5480.00
40
20.00
50
0.00
51
180.00
0
ARC
8
箍筋信息
62
3
10
12250.00
20
-5480.00
40
20.00
50
180.00
51
0.00
0
ARC
8
箍筋信息
62
3
10
13300.00
20
-5480.00
40
20.00
50
0.00
51
180.00
0
ARC
8
箍筋信息
62
3
10
13300.00
20
-5480.00
40
20.00
50
180.00
51
0.00
0
LINE
8
箍筋信息
62
2
10
17082.50
20
-6310.00
11
17367.50
21
-6310.00
0
LINE
8
箍筋信息
62
2
10
17380.00
20
-6297.50
11
17380.00
21
-5812.50
0
LINE
8
箍筋信息
62
2
10
17367.50
20
-5800.00
11
17082.50
21
-5800.00
0
LINE
8
箍筋信息
62
2
10
17070.00
20
-5812.50
11
17070.00
21
-6297.50
0
ARC
8
箍筋信息
62
2
10
17082.50
20
-5812.50
40
12.50
50
90.00
51
-135.00
0
ARC
8
箍筋信息
62
2
10
17082.50
20
-5812.50
40
12.50
50
45.00
51
180.00
0
ARC
8
箍筋信息
62
2
10
17367.50
20
-6297.50
40
12.50
50
-90.00
51
0.00
0
ARC
8
箍筋信息
62
2
10
17367.50
20
-5812.50
40
12.50
50
0.00
51
90.00
0
ARC
8
箍筋信息
62
2
10
17082.50
20
-5812.50
40
12.50
50
90.00
51
180.00
0
ARC
8
箍筋信息
62
2
10
17082.50
20
-6297.50
40
12.50
50
180.00
51
-90.00
0
LINE
8
箍筋信息
62
2
10
17091.34
20
-5803.66
11
17147.91
21
-5860.23
0
LINE
8
箍筋信息
62
2
10
17073.66
20
-5821.34
11
17130.23
21
-5877.91
0
LINE
8
箍筋信息
62
2
10
17172.17
20
-6310.00
11
17277.83
21
-6310.00
0
LINE
8
箍筋信息
62
2
10
17290.33
20
-6297.50
11
17290.33
21
-5812.50
0
LINE
8
箍筋信息
62
2
10
17277.83
20
-5800.00
11
17172.17
21
-5800.00
0
LINE
8
箍筋信息
62
2
10
17159.67
20
-5812.50
11
17159.67
21
-6297.50
0
ARC
8
箍筋信息
62
2
10
17172.17
20
-5812.50
40
12.50
50
90.00
51
-135.00
0
ARC
8
箍筋信息
62
2
10
17172.17
20
-5812.50
40
12.50
50
45.00
51
180.00
0
ARC
8
箍筋信息
62
2
10
17277.83
20
-6297.50
40
12.50
50
-90.00
51
0.00
0
ARC
8
箍筋信息
62
2
10
17277.83
20
-5812.50
40
12.50
50
0.00
51
90.00
0
ARC
8
箍筋信息
62
2
10
17172.17
20
-5812.50
40
12.50
50
90.00
51
180.00
0
ARC
8
箍筋信息
62
2
10
17172.17
20
-6297.50
40
12.50
50
180.00
51
-90.00
0
LINE
8
箍筋信息
62
2
10
17181.01
20
-5803.66
11
17237.57
21
-5860.23
0
LINE
8
箍筋信息
62
2
10
17163.33
20
-5821.34
11
17219.90
21
-5877.91
0
LINE
8
箍筋信息
10
17225.00
20
-6530.00
11
17575.00
21
-6530.00
0
LINE
8
箍筋信息
10
17225.00
20
-6530.00
11
17380.00
21
-6055.00
0
LINE
8
箍筋信息
10
17225.00
20
-6530.00
11
17290.33
21
-6055.00
0
LINE
8
箍筋信息
62
3
10
16700.00
20
-5780.00
11
16700.00
21
-5240.00
0
LINE
8
箍筋信息
62
3
10
17750.00
20
-5780.00
11
17750.00
21
-5240.00
0
LINE
8
箍筋信息
62
3
10
16460.00
20
-5480.00
11
16700.00
21
-5480.00
0
LINE
8
箍筋信息
62
3
10
17750.00
20
-5480.00
11
17990.00
21
-5480.00
0
LINE
8
箍筋信息
62
3
10
16700.00
20
-5480.00
11
17750.00
21
-5480.00
0
ARC
8
箍筋信息
62
3
10
16700.00
20
-5480.00
40
20.00
50
0.00
51
180.00
0
ARC
8
箍筋信息
62
3
10
16700.00
20
-5480.00
40
20.00
50
180.00
51
0.00
0
ARC
8
箍筋信息
62
3
10
17750.00
20
-5480.00
40
20.00
50
0.00
51
180.00
0
ARC
8
箍筋信息
62
3
10
17750.00
20
-5480.00
40
20.00
50
180.00
51
0.00
0
LINE
8
箍筋信息
62
2
10
14857.50
20
-6310.00
11
15142.50
21
-6310.00
0
LINE
8
箍筋信息
62
2
10
15155.00
20
-6297.50
11
15155.00
21
-5812.50
0
LINE
8
箍筋信息
62
2
10
15142.50
20
-5800.00
11
14857.50
21
-5800.00
0
LINE
8
箍筋信息
62
2
10
14845.00
20
-5812.50
11
14845.00
21
-6297.50
0
ARC
8
箍筋信息
62
2
10
14857.50
20
-5812.50
40
12.50
50
90.00
51
-135.00
0
ARC
8
箍筋信息
62
2
10
14857.50
20
-5812.50
40
12.50
50
45.00
51
180.00
0
ARC
8
箍筋信息
62
2
10
15142.50
20
-6297.50
40
12.50
50
-90.00
51
0.00
0
ARC
8
箍筋信息
62
2
10
15142.50
20
-5812.50
40
12.50
50
0.00
51
90.00
0
ARC
8
箍筋信息
62
2
10
14857.50
20
-5812.50
40
12.50
50
90.00
51
180.00
0
ARC
8
箍筋信息
62
2
10
14857.50
20
-6297.50
40
12.50
50
180.00
51
-90.00
0
LINE
8
箍筋信息
62
2
10
14866.34
20
-5803.66
11
14922.91
21
-5860.23
0
LINE
8
箍筋信息
62
2
10
14848.66
20
-5821.34
11
14905.23
21
-5877.91
0
LINE
8
箍筋信息
62
2
10
14947.17
20
-6310.00
11
15052.83
21
-6310.00
0
LINE
8
箍筋信息
62
2
10
15065.33
20
-6297.50
11
15065.33
21
-5812.50
0
LINE
8
箍筋信息
62
2
10
15052.83
20
-5800.00
11
14947.17
21
-5800.00
0
LINE
8
箍筋信息
62
2
10
14934.67
20
-5812.50
11
14934.67
21
-6297.50
0
ARC
8
箍筋信息
62
2
10
14947.17
20
-5812.50
40
12.50
50
90.00
51
-135.00
0
ARC
8
箍筋信息
62
2
10
14947.17
20
-5812.50
40
12.50
50
45.00
51
180.00
0
ARC
8
箍筋信息
62
2
10
15052.83
20
-6297.50
40
12.50
50
-90.00
51
0.00
0
ARC
8
箍筋信息
62
2
10
15052.83
20
-5812.50
40
12.50
50
0.00
51
90.00
0
ARC
8
箍筋信息
62
2
10
14947.17
20
-5812.50
40
12.50
50
90.00
51
180.00
0
ARC
8
箍筋信息
62
2
10
14947.17
20
-6297.50
40
12.50
50
180.00
51
-90.00
0
LINE
8
箍筋信息
62
2
10
14956.01
20
-5803.66
11
15012.57
21
-5860.23
0
LINE
8
箍筋信息
62
2
10
14938.33
20
-5821.34
11
14994.90
21
-5877.91
0
LINE
8
箍筋信息
10
15000.00
20
-6530.00
11
15350.00
21
-6530.00
0
LINE
8
箍筋信息
10
15000.00
20
-6530.00
11
15155.00
21
-6055.00
0
LINE
8
箍筋信息
10
15000.00
20
-6530.00
11
15065.33
21
-6055.00
0
LINE
8
箍筋信息
62
3
10
13300.00
20
-5780.00
11
13300.00
21
-5240.00
0
LINE
8
箍筋信息
62
3
10
16700.00
20
-5780.00
11
16700.00
21
-5240.00
0
LINE
8
箍筋信息
62
3
10
13060.00
20
-5480.00
11
13300.00
21
-5480.00
0
LINE
8
箍筋信息
62
3
10
16700.00
20
-5480.00
11
16940.00
21
-5480.00
0
LINE
8
箍筋信息
62
3
10
13300.00
20
-5480.00
11
16700.00
21
-5480.00
0
ARC
8
箍筋信息
62
3
10
13300.00
20
-5480.00
40
20.00
50
0.00
51
180.00
0
ARC
8
箍筋信息
62
3
10
13300.00
20
-5480.00
40
20.00
50
180.00
51
0.00
0
ARC
8
箍筋信息
62
3
10
16700.00
20
-5480.00
40
20.00
50
0.00
51
180.00
0
ARC
8
箍筋信息
62
3
10
16700.00
20
-5480.00
40
20.00
50
180.00
51
0.00
0
LINE
8
箍筋信息
10
600.00
20
-5780.00
11
950.00
21
-5780.00
0
LINE
8
箍筋信息
10
950.00
20
-5780.00
11
950.00
21
-6330.00
0
LINE
8
箍筋信息
10
950.00
20
-6330.00
11
600.00
21
-6330.00
0
LINE
8
箍筋信息
10
600.00
20
-6330.00
11
600.00
21
-5780.00
0
ARC
8
箍筋信息
62
1
10
632.50
20
-5812.50
40
12.50
50
180.00
51
0.00
0
ARC
8
箍筋信息
62
1
10
632.50
20
-5812.50
40
12.50
50
0.00
51
180.00
0
ARC
8
箍筋信息
62
1
10
917.50
20
-5812.50
40
12.50
50
180.00
51
0.00
0
ARC
8
箍筋信息
62
1
10
917.50
20
-5812.50
40
12.50
50
0.00
51
180.00
0
ARC
8
箍筋信息
62
1
10
917.50
20
-6297.50
40
12.50
50
180.00
51
0.00
0
ARC
8
箍筋信息
62
1
10
917.50
20
-6297.50
40
12.50
50
0.00
51
180.00
0
ARC
8
箍筋信息
62
1
10
632.50
20
-6297.50
40
12.50
50
180.00
51
0.00
0
ARC
8
箍筋信息
62
1
10
632.50
20
-6297.50
40
12.50
50
0.00
51
180.00
0
ARC
8
箍筋信息
62
1
10
722.17
20
-6297.50
40
12.50
50
180.00
51
0.00
0
ARC
8
箍筋信息
62
1
10
722.17
20
-6297.50
40
12.50
50
0.00
51
180.00
0
ARC
8
箍筋信息
62
1
10
827.83
20
-6297.50
40
12.50
50
180.00
51
0.00
0
ARC
8
箍筋信息
62
1
10
827.83
20
-6297.50
40
12.50
50
0.00
51
180.00
0
LINE
8
箍筋信息
10
11050.00
20
-5780.00
11
11400.00
21
-5780.00
0
LINE
8
箍筋信息
10
11400.00
20
-5780.00
11
11400.00
21
-6330.00
0
LINE
8
箍筋信息
10
11400.00
20
-6330.00
11
11050.00
21
-6330.00
0
LINE
8
箍筋信息
10
11050.00
20
-6330.00
11
11050.00
21
-5780.00
0
ARC
8
箍筋信息
62
1
10
11082.50
20
-5812.50
40
12.50
50
180.00
51
0.00
0
ARC
8
箍筋信息
62
1
10
11082.50
20
-5812.50
40
12.50
50
0.00
51
180.00
0
ARC
8
箍筋信息
62
1
10
11367.50
20
-5812.50
40
12.50
50
180.00
51
0.00
0
ARC
8
箍筋信息
62
1
10
11367.50
20
-5812.50
40
12.50
50
0.00
51
180.00
0
ARC
8
箍筋信息
62
1
10
11367.50
20
-6297.50
40
12.50
50
180.00
51
0.00
0
ARC
8
箍筋信息
62
1
10
11367.50
20
-6297.50
40
12.50
50
0.00
51
180.00
0
ARC
8
箍筋信息
62
1
10
11082.50
20
-6297.50
40
12.50
50
180.00
51
0.00
0
ARC
8
箍筋信息
62
1
10
11082.50
20
-6297.50
40
12.50
50
0.00
51
180.00
0
ARC
8
箍筋信息
62
1
10
11172.17
20
-6297.50
40
12.50
50
180.00
51
0.00
0
ARC
8
箍筋信息
62
1
10
11172.17
20
-6297.50
40
12.50
50
0.00
51
180.00
0
ARC
8
箍筋信息
62
1
10
11277.83
20
-6297.50
40
12.50
50
180.00
51
0.00
0
ARC
8
箍筋信息
62
1
10
11277.83
20
-6297.50
40
12.50
50
0.00
51
180.00
0
LINE
8
箍筋信息
10
5825.00
20
-5780.00
11
6175.00
21
-5780.00
0
LINE
8
箍筋信息
10
6175.00
20
-5780.00
11
6175.00
21
-6330.00
0
LINE
8
箍筋信息
10
6175.00
20
-6330.00
11
5825.00
21
-6330.00
0
LINE
8
箍筋信息
10
5825.00
20
-6330.00
11
5825.00
21
-5780.00
0
ARC
8
箍筋信息
62
1
10
5857.50
20
-5812.50
40
12.50
50
180.00
51
0.00
0
ARC
8
箍筋信息
62
1
10
5857.50
20
-5812.50
40
12.50
50
0.00
51
180.00
0
ARC
8
箍筋信息
62
1
10
6142.50
20
-5812.50
40
12.50
50
180.00
51
0.00
0
ARC
8
箍筋信息
62
1
10
6142.50
20
-5812.50
40
12.50
50
0.00
51
180.00
0
ARC
8
箍筋信息
62
1
10
6142.50
20
-6297.50
40
12.50
50
180.00
51
0.00
0
ARC
8
箍筋信息
62
1
10
6142.50
20
-6297.50
40
12.50
50
0.00
51
180.00
0
ARC
8
箍筋信息
62
1
10
5857.50
20
-6297.50
40
12.50
50
180.00
51
0.00
0
ARC
8
箍筋信息
62
1
10
5857.50
20
-6297.50
40
12.50
50
0.00
51
180.00
0
ARC
8
箍筋信息
62
1
10
5947.17
20
-6297.50
40
12.50
50
180.00
51
0.00
0
ARC
8
箍筋信息
62
1
10
5947.17
20
-6297.50
40
12.50
50
0.00
51
180.00
0
ARC
8
箍筋信息
62
1
10
6052.83
20
-6297.50
40
12.50
50
180.00
51
0.00
0
ARC
8
箍筋信息
62
1
10
6052.83
20
-6297.50
40
12.50
50
0.00
51
180.00
0
LINE
8
箍筋信息
10
12600.00
20
-5780.00
11
12950.00
21
-5780.00
0
LINE
8
箍筋信息
10
12950.00
20
-5780.00
11
12950.00
21
-6330.00
0
LINE
8
箍筋信息
10
12950.00
20
-6330.00
11
12600.00
21
-6330.00
0
LINE
8
箍筋信息
10
12600.00
20
-6330.00
11
12600.00
21
-5780.00
0
ARC
8
箍筋信息
62
1
10
12632.50
20
-5812.50
40
12.50
50
180.00
51
0.00
0
ARC
8
箍筋信息
62
1
10
12632.50
20
-5812.50
40
12.50
50
0.00
51
180.00
0
ARC
8
箍筋信息
62
1
10
12917.50
20
-5812.50
40
12.50
50
180.00
51
0.00
0
ARC
8
箍筋信息
62
1
10
12917.50
20
-5812.50
40
12.50
50
0.00
51
180.00
0
ARC
8
箍筋信息
62
1
10
12917.50
20
-6297.50
40
12.50
50
180.00
51
0.00
0
ARC
8
箍筋信息
62
1
10
12917.50
20
-6297.50
40
12.50
50
0.00
51
180.00
0
ARC
8
箍筋信息
62
1
10
12632.50
20
-6297.50
40
12.50
50
180.00
51
0.00
0
ARC
8
箍筋信息
62
1
10
12632.50
20
-6297.50
40
12.50
50
0.00
51
180.00
0
ARC
8
箍筋信息
62
1
10
12722.17
20
-6297.50
40
12.50
50
180.00
51
0.00
0
ARC
8
箍筋信息
62
1
10
12722.17
20
-6297.50
40
12.50
50
0.00
51
180.00
0
ARC
8
箍筋信息
62
1
10
12827.83
20
-6297.50
40
12.50
50
180.00
51
0.00
0
ARC
8
箍筋信息
62
1
10
12827.83
20
-6297.50
40
12.50
50
0.00
51
180.00
0
LINE
8
箍筋信息
10
17050.00
20
-5780.00
11
17400.00
21
-5780.00
0
LINE
8
箍筋信息
10
17400.00
20
-5780.00
11
17400.00
21
-6330.00
0
LINE
8
箍筋信息
10
17400.00
20
-6330.00
11
17050.00
21
-6330.00
0
LINE
8
箍筋信息
10
17050.00
20
-6330.00
11
17050.00
21
-5780.00
0
ARC
8
箍筋信息
62
1
10
17082.50
20
-5812.50
40
12.50
50
180.00
51
0.00
0
ARC
8
箍筋信息
62
1
10
17082.50
20
-5812.50
40
12.50
50
0.00
51
180.00
0
ARC
8
箍筋信息
62
1
10
17367.50
20
-5812.50
40
12.50
50
180.00
51
0.00
0
ARC
8
箍筋信息
62
1
10
17367.50
20
-5812.50
40
12.50
50
0.00
51
180.00
0
ARC
8
箍筋信息
62
1
10
17367.50
20
-6297.50
40
12.50
50
180.00
51
0.00
0
ARC
8
箍筋信息
62
1
10
17367.50
20
-6297.50
40
12.50
50
0.00
51
180.00
0
ARC
8
箍筋信息
62
1
10
17082.50
20
-6297.50
40
12.50
50
180.00
51
0.00
0
ARC
8
箍筋信息
62
1
10
17082.50
20
-6297.50
40
12.50
50
0.00
51
180.00
0
ARC
8
箍筋信息
62
1
10
17172.17
20
-6297.50
40
12.50
50
180.00
51
0.00
0
ARC
8
箍筋信息
62
1
10
17172.17
20
-6297.50
40
12.50
50
0.00
51
180.00
0
ARC
8
箍筋信息
62
1
10
17277.83
20
-6297.50
40
12.50
50
180.00
51
0.00
0
ARC
8
箍筋信息
62
1
10
17277.83
20
-6297.50
40
12.50
50
0.00
51
180.00
0
LINE
8
箍筋信息
10
14825.00
20
-5780.00
11
15175.00
21
-5780.00
0
LINE
8
箍筋信息
10
15175.00
20
-5780.00
11
15175.00
21
-6330.00
0
LINE
8
箍筋信息
10
15175.00
20
-6330.00
11
14825.00
21
-6330.00
0
LINE
8
箍筋信息
10
14825.00
20
-6330.00
11
14825.00
21
-5780.00
0
ARC
8
箍筋信息
62
1
10
14857.50
20
-5812.50
40
12.50
50
180.00
51
0.00
0
ARC
8
箍筋信息
62
1
10
14857.50
20
-5812.50
40
12.50
50
0.00
51
180.00
0
ARC
8
箍筋信息
62
1
10
15142.50
20
-5812.50
40
12.50
50
180.00
51
0.00
0
ARC
8
箍筋信息
62
1
10
15142.50
20
-5812.50
40
12.50
50
0.00
51
180.00
0
ARC
8
箍筋信息
62
1
10
15142.50
20
-6297.50
40
12.50
50
180.00
51
0.00
0
ARC
8
箍筋信息
62
1
10
15142.50
20
-6297.50
40
12.50
50
0.00
51
180.00
0
ARC
8
箍筋信息
62
1
10
14857.50
20
-6297.50
40
12.50
50
180.00
51
0.00
0
ARC
8
箍筋信息
62
1
10
14857.50
20
-6297.50
40
12.50
50
0.00
51
180.00
0
ARC
8
箍筋信息
62
1
10
14947.17
20
-6297.50
40
12.50
50
180.00
51
0.00
0
ARC
8
箍筋信息
62
1
10
14947.17
20
-6297.50
40
12.50
50
0.00
51
180.00
0
ARC
8
箍筋信息
62
1
10
15052.83
20
-6297.50
40
12.50
50
180.00
51
0.00
0
ARC
8
箍筋信息
62
1
10
15052.83
20
-6297.50
40
12.50
50
0.00
51
180.00
0
TEXT
8
箍筋信息
7
Style1
10
940.00
20
-6491.24
30
0
11
950.00
21
-6491.24
31
0
50
0.00
72
1
73
2
40
153.85
62
7
1
12C8@100
0
TEXT
8
箍筋信息
7
Style1
10
765.00
20
-5280.00
30
0
11
775.00
21
-5280.00
31
0
50
0.00
72
1
73
2
40
153.85
62
7
1
1050
0
TEXT
8
箍筋信息
7
Style1
10
11390.00
20
-6491.24
30
0
11
11400.00
21
-6491.24
31
0
50
0.00
72
1
73
2
40
153.85
62
7
1
12C8@100
0
TEXT
8
箍筋信息
7
Style1
10
11215.00
20
-5280.00
30
0
11
11225.00
21
-5280.00
31
0
50
0.00
72
1
73
2
40
153.85
62
7
1
1050
0
TEXT
8
箍筋信息
7
Style1
10
6165.00
20
-6491.24
30
0
11
6175.00
21
-6491.24
31
0
50
0.00
72
1
73
2
40
153.85
62
7
1
46C8@200
0
TEXT
8
箍筋信息
7
Style1
10
5990.00
20
-5280.00
30
0
11
6000.00
21
-5280.00
31
0
50
0.00
72
1
73
2
40
153.85
62
7
1
9400
0
TEXT
8
箍筋信息
7
Style1
10
12940.00
20
-6491.24
30
0
11
12950.00
21
-6491.24
31
0
50
0.00
72
1
73
2
40
153.85
62
7
1
12C8@100
0
TEXT
8
箍筋信息
7
Style1
10
12765.00
20
-5280.00
30
0
11
12775.00
21
-5280.00
31
0
50
0.00
72
1
73
2
40
153.85
62
7
1
1050
0
TEXT
8
箍筋信息
7
Style1
10
17390.00
20
-6491.24
30
0
11
17400.00
21
-6491.24
31
0
50
0.00
72
1
73
2
40
153.85
62
7
1
12C8@100
0
TEXT
8
箍筋信息
7
Style1
10
17215.00
20
-5280.00
30
0
11
17225.00
21
-5280.00
31
0
50
0.00
72
1
73
2
40
153.85
62
7
1
1050
0
TEXT
8
箍筋信息
7
Style1
10
15165.00
20
-6491.24
30
0
11
15175.00
21
-6491.24
31
0
50
0.00
72
1
73
2
40
153.85
62
7
1
16C8@200
0
TEXT
8
箍筋信息
7
Style1
10
14990.00
20
-5280.00
30
0
11
15000.00
21
-5280.00
31
0
50
0.00
72
1
73
2
40
153.85
62
7
1
3400
0
ENDSEC
0
EOF
